<?xml version="1.0" standalone="no"?>
<!DOCTYPE svg PUBLIC "-//W3C//DTD SVG 20010904//EN"
 "http://www.w3.org/TR/2001/REC-SVG-20010904/DTD/svg10.dtd">
<svg version="1.0" xmlns="http://www.w3.org/2000/svg"
 width="500.000000pt" height="500.000000pt" viewBox="0 0 500.000000 500.000000"
 preserveAspectRatio="xMidYMid meet">
<metadata>
Created by potrace 1.11, written by Peter Selinger 2001-2013
</metadata>
<g transform="translate(0.000000,500.000000) scale(0.100000,-0.100000)"
fill="#000000" stroke="none">
<path d="M500 2498 c0 -1896 1 -1998 18 -1999 63 -3 473 -1 476 2 3 2 171 338
375 747 204 408 373 742 375 742 3 0 172 -335 377 -745 204 -410 375 -747 378
-749 4 -3 175 333 381 745 206 412 377 749 380 749 3 -1 172 -337 377 -748
l371 -747 246 0 246 0 -2 2000 -3 2000 -243 1 -244 0 -375 -750 -375 -751
-376 753 c-207 413 -378 752 -382 752 -3 0 -173 -338 -379 -750 -206 -412
-377 -748 -379 -745 -3 3 -172 339 -376 747 l-371 743 -247 1 -248 1 0 -1999z
m990 0 c0 -10 -539 -1098 -544 -1098 -2 0 -4 496 -4 1103 l0 1102 274 -548
c151 -302 274 -553 274 -559z m2569 -5 l0 -1098 -276 550 -276 551 273 547
c151 301 275 547 276 547 1 0 3 -494 3 -1097z m-1302 -500 c-139 -276 -254
-503 -257 -503 -3 0 -118 227 -256 503 l-251 503 215 430 c118 236 232 464
254 508 l39 78 254 -508 253 -507 -251 -504z"/>
</g>
</svg>
